<?xml version="1.0" encoding="UTF-8"?>
<svg version="1.1" xmlns="http://www.w3.org/2000/svg" width="439" height="439">
<path d="M0 0 C9.6080313 6.49152488 12.9395258 14.90135424 16.0390625 25.6875 C16.31730865 26.63377762 16.59555481 27.58005524 16.88223267 28.55500793 C17.80447193 31.70106778 18.71500636 34.85037813 19.625 38 C20.27931789 40.24447356 20.93394787 42.48885615 21.58886719 44.7331543 C27.71498379 65.78892755 33.63944951 86.90229929 39.546875 108.02026367 C40.29405744 110.69065222 41.04144149 113.36098421 41.7890625 116.03125 C41.97058113 116.67959116 42.15209976 117.32793232 42.33911896 117.99592018 C44.71523803 126.47767754 47.12403452 134.94899048 49.5859375 143.40625 C49.85220947 144.3209758 50.11848145 145.2357016 50.39282227 146.17814636 C51.58949618 150.28152366 52.79296642 154.38278926 54.00488281 158.48168945 C54.21327789 159.19180176 54.42167297 159.90191406 54.63638306 160.63354492 C55.17989029 162.48549967 55.72768394 164.33619502 56.27587891 166.18676758 C57 169 57 169 57 172 C53.8564879 173.57175605 50.48756483 173.18401351 47.03515625 173.203125 C45.8514872 173.21167511 45.8514872 173.21167511 44.64390564 173.22039795 C42.97363629 173.22984925 41.30334829 173.23638245 39.63305664 173.24023438 C37.07600488 173.24994869 34.51975395 173.28097332 31.96289062 173.3125 C30.34115061 173.31902922 28.71940485 173.32428001 27.09765625 173.328125 C26.33195816 173.3404718 25.56626007 173.3528186 24.77735901 173.36553955 C19.45180221 173.34315711 19.45180221 173.34315711 17.3719635 171.76345825 C15.7542131 169.68407692 15.15289022 167.96177739 14.43505859 165.42822266 C14.16698395 164.49795258 13.8989093 163.5676825 13.62271118 162.60922241 C13.34245087 161.59606964 13.06219055 160.58291687 12.7734375 159.5390625 C12.47166595 158.47523346 12.16989441 157.41140442 11.85897827 156.31533813 C8.30666316 143.7068257 4.94640907 131.0459443 1.625 118.375 C1.3011734 117.14295837 0.9773468 115.91091675 0.64370728 114.64154053 C-3.50456413 98.84138482 -7.55654331 83.02333469 -11.3125 67.125 C-11.58365631 65.98040314 -11.58365631 65.98040314 -11.86029053 64.81268311 C-17 43.02811666 -17 43.02811666 -17 36 C-17.66 36 -18.32 36 -19 36 C-19.09361816 36.54762497 -19.18723633 37.09524994 -19.28369141 37.6594696 C-20.75011761 45.61229545 -23.04535611 53.28794431 -25.375 61.01953125 C-25.81705232 62.49894462 -26.25867636 63.97848602 -26.6999054 65.45814514 C-27.63999082 68.60784844 -28.58276315 71.75672922 -29.52774048 74.90496826 C-31.01160336 79.84885368 -32.48927047 84.79457603 -33.96557617 89.74072266 C-34.46640994 91.4185197 -34.96724919 93.0963151 -35.46809387 94.77410889 C-35.71717813 95.60855278 -35.9662624 96.44299667 -36.22289467 97.30272675 C-36.98321025 99.84902503 -37.744112 102.39514748 -38.50517273 104.94122314 C-43.27838926 120.91229514 -48.00961913 136.89562625 -52.72503662 152.88384628 C-53.50347242 155.52228364 -54.28291386 158.16042349 -55.06232929 160.79857159 C-55.95510199 163.82121091 -56.84665032 166.84421121 -57.73828125 169.8671875 C-58.05702713 170.94597672 -58.37577301 172.02476593 -58.70417786 173.13624573 C-58.99427231 174.12108444 -59.28436676 175.10592316 -59.58325195 176.12060547 C-59.8344429 176.97218231 -60.08563385 177.82375916 -60.34443665 178.70114136 C-60.94070322 180.79206447 -61.48715352 182.88725887 -62 185 C-61.36908447 184.93107544 -60.73816895 184.86215088 -60.08813477 184.7911377 C-52.36503607 184.01131143 -44.69604682 183.80239397 -36.9375 183.71875 C-35.59018405 183.70107746 -34.24287368 183.68297529 -32.89556885 183.66447449 C-30.05853423 183.62603865 -27.22148381 183.58982841 -24.38439941 183.55526733 C-19.97067267 183.50076575 -15.55711678 183.4367554 -11.14355469 183.37036133 C-10.41451809 183.35942224 -9.68548149 183.34848314 -8.93435287 183.33721256 C-7.47010246 183.31520541 -6.00585252 183.29316583 -4.54160309 183.27109337 C-0.96199088 183.21727009 2.61763345 183.16429376 6.19726562 183.11181641 C6.87419338 183.1018888 7.55112114 183.09196119 8.24856186 183.08173275 C12.25094001 183.02364562 16.25334707 182.97121561 20.25585938 182.92333984 C24.3854933 182.87354845 28.51445389 182.8079711 32.64355469 182.72509766 C34.66582372 182.68900245 36.68840931 182.67220683 38.7109375 182.65625 C55.06265489 182.28859897 68.0306254 176.68277296 79.46020508 165.07910156 C97.13524791 146.26583934 110.79661558 119.20927626 110.25 93.07421875 C109.20405275 80.21233615 104.84779942 67.71084212 95 59 C81.33710904 49.01346926 65.01709906 43.7770052 48 45 C47.05125 45.165 46.1025 45.33 45.125 45.5 C42.14317289 45.97709234 39.32874609 46.17093719 36.3125 46.25 C34.91451172 46.28867188 34.91451172 46.28867188 33.48828125 46.328125 C30.60489106 45.94789772 29.76675948 45.24537994 28 43 C28.96563861 40.59596222 29.62210505 39.2492152 31.8125 37.8046875 C50.58101329 29.82806935 71.18970911 32.09889965 90 39 C97.17664099 41.96538394 103.12465639 45.9498451 109 51 C109.60585938 51.49886719 110.21171875 51.99773437 110.8359375 52.51171875 C121.8757143 62.42753638 127.85045344 78.38123484 128.90625 92.8984375 C128.95265625 93.93871094 128.95265625 93.93871094 129 95 C129.07734375 96.04027344 129.07734375 96.04027344 129.15625 97.1015625 C130.41568602 127.64288589 115.25362605 154.53701831 95.3125 176.375 C93.55799417 178.26528701 91.7863363 180.13976391 90 182 C89.46431396 182.5583252 88.92862793 183.11665039 88.37670898 183.69189453 C71.0902891 201.38428153 48.60341082 212.5076046 27.16445923 224.29342651 C-1.20859014 238.55059087 -1.20859014 238.55059087 -20.16015625 262.8671875 C-22.10795838 270.13294241 -22.30542627 279.24265748 -19.09765625 286.1953125 C-14.85469257 293.17128837 -9.95101299 297.75051412 -2 300 C3.46138782 300.65913301 7.19922821 299.66709544 12 297 C15.84923218 292.86496385 18.40808848 288.70982612 20.8125 283.625 C21.12380859 282.98433594 21.43511719 282.34367187 21.75585938 281.68359375 C22.51140356 280.12601035 23.25679739 278.56350982 24 277 C26.375 277.25 26.375 277.25 29 278 C32.74901073 282.79418948 31.47515426 290.31049056 31 296 C29.00527723 305.55860443 22.38962679 312.43342823 15 318.4375 C5.28448032 323.4976665 -5.17948834 324.74713558 -15.9375 322.34375 C-29.5943373 317.39314648 -39.79824941 305.58721137 -45.80859375 292.76171875 C-46.91781789 290.19050082 -47.97890279 287.60735984 -49 285 C-58.49256191 291.91841556 -67.93738209 298.88436597 -77.1875 306.125 C-84.6889434 311.99569483 -92.25880673 317.7604172 -99.90771484 323.4375 C-102.12186423 325.09100713 -104.32090237 326.76342184 -106.51953125 328.4375 C-129.51012093 345.82751125 -158.59487959 365.87952732 -189.06640625 361.71777344 C-196.64602231 360.29020606 -204.94852695 357.96827382 -211 353 C-212.23046875 350.84375 -212.23046875 350.84375 -213 349 C-211.67548828 349.17789063 -211.67548828 349.17789063 -210.32421875 349.359375 C-197.79454896 350.70520419 -189.63580056 348.0520983 -179.6875 340.37890625 C-174.82519613 336.07491925 -170.85084 331.19422818 -167 326 C-166.22269531 324.9584375 -165.44539063 323.916875 -164.64453125 322.84375 C-145.44153258 296.01394459 -134.98710196 264.45235622 -124.50390625 233.53125 C-124.28034958 232.87483521 -124.05679291 232.21842041 -123.82646179 231.54211426 C-120.36598752 221.95325498 -120.36598752 221.95325498 -121 212 C-122.89533875 209.41544715 -123.88826517 209.03724494 -127 208 C-140.77372393 206.75220619 -154.4513941 210.51187144 -165.25 219.1875 C-171.39006148 224.86767834 -176.58855125 233.13208035 -177.30078125 241.55859375 C-177.30464844 242.83863281 -177.30851562 244.11867188 -177.3125 245.4375 C-177.32925781 246.71496094 -177.34601563 247.99242187 -177.36328125 249.30859375 C-176.84124158 254.61319043 -175.35007209 257.83831006 -171.3125 261.3125 C-163.86450298 265.10676263 -158.55129387 263.94089145 -150.83203125 261.59375 C-147.82643907 260.96361205 -145.93227319 261.18518186 -143 262 C-142.67 263.65 -142.34 265.3 -142 267 C-148.85843607 274.01793458 -157.37619519 277.08156938 -167.1875 277.4375 C-177.15395262 276.93675441 -184.87732379 273.40146131 -191.72265625 266.18359375 C-197.26532042 259.44251571 -199.6721606 251.53100577 -199.34375 242.828125 C-197.13618367 224.66587471 -188.42009104 212.64865778 -174.6328125 201 C-155.29091485 186.41217147 -130.48550182 183.66395943 -107 184 C-106.7546904 183.13967918 -106.7546904 183.13967918 -106.50442505 182.26197815 C-104.42558703 175.13882682 -101.97346042 168.18360801 -99.4296875 161.21484375 C-98.75574122 159.35769751 -98.08179504 157.50055123 -97.40785408 155.64340305 C-96.46820574 153.05630532 -95.52597046 150.4701527 -94.58380127 147.88397217 C-93.42388859 144.69868197 -92.26665964 141.51241764 -91.109375 138.32617188 C-90.65155182 137.0658869 -90.19372712 135.80560247 -89.73590088 134.5453186 C-89.50999519 133.92341267 -89.28408951 133.30150673 -89.0513382 132.66075516 C-88.36659961 130.77572533 -87.68180565 128.89071562 -86.99700928 127.00570679 C-86.09921976 124.53419184 -85.20157339 122.06262488 -84.30407715 119.59100342 C-83.45071671 117.24112692 -82.5969722 114.89138985 -81.74279785 112.54180908 C-77.23411591 100.13085005 -72.81529934 87.7050821 -68.70687866 75.15560913 C-46.46769241 7.33775647 -46.46769241 7.33775647 -31.75 -1.32421875 C-21.3012108 -6.09650228 -10.18246025 -4.9999391 0 0 Z M-23.87319946 202.69171143 C-25.81084505 202.77133766 -27.74865505 202.8470719 -29.68661499 202.91864014 C-52.53485066 202.99841913 -52.53485066 202.99841913 -72 213 C-76.22235683 220.37291396 -78.74775474 228.69294358 -81.3984375 236.7265625 C-81.7964859 237.91365814 -82.1945343 239.10075378 -82.60464478 240.32382202 C-83.86700742 244.08903588 -85.12221172 247.85659349 -86.375 251.625 C-88.0218763 256.57781373 -89.67406413 261.52875936 -91.3359375 266.4765625 C-91.93097076 268.24981903 -91.93097076 268.24981903 -92.5380249 270.05889893 C-95.09318033 277.58159693 -97.85548761 284.9658556 -101.08895874 292.22476196 C-101.77801879 293.79467856 -102.39726971 295.39495854 -103 297 C-102.67 297.66 -102.34 298.32 -102 299 C-101.54375244 298.6690332 -101.08750488 298.33806641 -100.61743164 297.99707031 C-98.43324292 296.41362203 -96.2480402 294.83158244 -94.0625 293.25 C-92.84916992 292.37178589 -92.84916992 292.37178589 -91.61132812 291.47583008 C-86.81895285 288.0142047 -82.00434523 284.58814853 -77.16015625 281.19946289 C-65.25289919 272.8651904 -54.14282806 263.94565329 -43.703125 253.80859375 C-23.55284948 234.36210131 0.03400065 219.40703304 25.2590332 207.37426758 C26.13003662 206.95685303 27.00104004 206.53943848 27.8984375 206.109375 C29.05351807 205.56748535 29.05351807 205.56748535 30.23193359 205.01464844 C32.17129155 204.11838908 32.17129155 204.11838908 33 202 C14.02748133 201.76755938 -4.91337078 201.90985081 -23.87319946 202.69171143 Z " fill="#D4AB4E" transform="translate(253,41)"/>
<path d="M0 0 C1.20529753 2.65169336 2.10957392 5.10380652 2.9609375 7.87109375 C3.22783386 8.68756882 3.49473022 9.50404388 3.76971436 10.34526062 C4.3474716 12.11314249 4.91862183 13.88319407 5.48394775 15.65509033 C6.9920272 20.36423601 8.56405472 25.05169483 10.140625 29.73828125 C10.46044342 30.68979065 10.78026184 31.64130005 11.10977173 32.62164307 C25.89444461 76.68072311 25.89444461 76.68072311 52.78515625 113.6484375 C55 116 55 116 55 119 C35.98224986 119.53711219 19.28119672 117.60860778 4.4375 104.375 C2.94338448 102.93198615 1.46176944 101.47577107 0 100 C-0.886875 99.154375 -1.77375 98.30875 -2.6875 97.4375 C-3.450625 96.633125 -4.21375 95.82875 -5 95 C-5.77730469 94.24976563 -5.77730469 94.24976563 -6.5703125 93.484375 C-19.28516218 80.37040448 -24.71691432 59.87942368 -30.62384033 43.08041382 C-31.07787728 41.79119918 -31.53464428 40.50294231 -31.99432373 39.21572876 C-37.07707294 24.9365647 -37.07707294 24.9365647 -37 18 C-34.2645222 14.60165898 -31.13175869 12.8014821 -27.28125 10.8359375 C-26.18425781 10.27132813 -25.08726562 9.70671875 -23.95703125 9.125 C-22.81621094 8.5475 -21.67539062 7.97 -20.5 7.375 C-18.78876953 6.49714844 -18.78876953 6.49714844 -17.04296875 5.6015625 C-14.03279019 4.05933236 -11.01878247 2.52530845 -8 1 C-7.30455078 0.58959473 -6.60910156 0.17918945 -5.89257812 -0.24365234 C-3.46506735 -1.21377985 -2.41737015 -0.92446203 0 0 Z " fill="#D4AB4E" transform="translate(324,258)"/>
<path d="M0 0 C0.87462891 0.00451172 1.74925781 0.00902344 2.65039062 0.01367188 C4.78779047 0.02535166 6.92515463 0.04328311 9.0625 0.0625 C9.0625 0.7225 9.0625 1.3825 9.0625 2.0625 C4.41507824 3.18687623 -0.18227428 3.35550505 -4.9375 3.5625 C-12.61888944 3.92877375 -20.27392093 4.41584252 -27.9375 5.0625 C-25.9375 2.0625 -25.9375 2.0625 -24.01953125 1.5859375 C-23.27058594 1.53695312 -22.52164063 1.48796875 -21.75 1.4375 C-19.04551872 1.23857143 -16.43843535 0.9809575 -13.7578125 0.54296875 C-9.1425298 -0.03748091 -4.64462454 -0.04591644 0 0 Z " fill="#E1B854" transform="translate(219.9375,241.9375)"/>
<path d="M0 0 C1.28390625 0.07863281 2.5678125 0.15726562 3.890625 0.23828125 C7.76546104 0.68929961 11.04727444 1.51241222 14.75 2.6875 C11.35216909 3.96168659 8.53208437 3.40387421 5.00976562 2.92993164 C1.25716847 2.5273464 -2.48031661 2.5825339 -6.25 2.625 C-7.02472656 2.62951172 -7.79945313 2.63402344 -8.59765625 2.63867188 C-10.48180524 2.65030242 -12.36591365 2.66823094 -14.25 2.6875 C-9.175697 0.06286052 -5.73496625 -0.38271189 0 0 Z " fill="#DEB45C" transform="translate(307.25,83.3125)"/>
<path d="M0 0 C-2.72106694 2.72106694 -4.84776311 2.60655572 -8.625 3.125 C-10.40777344 3.37636719 -10.40777344 3.37636719 -12.2265625 3.6328125 C-13.14179687 3.75398437 -14.05703125 3.87515625 -15 4 C-15 3.01 -15 2.02 -15 1 C-9.42567486 -0.66251802 -5.6932495 -1.18609365 0 0 Z " fill="#E1B852" transform="translate(117,247)"/>
<path d="M0 0 C2.31 0.33 4.62 0.66 7 1 C7 1.66 7 2.32 7 3 C5.02 3.99 5.02 3.99 3 5 C1.5 3.625 1.5 3.625 0 2 C0 1.34 0 0.68 0 0 Z " fill="#C2A940" transform="translate(40,390)"/>
<path d="M0 0 C0.33 0 0.66 0 1 0 C1 2.64 1 5.28 1 8 C0.01 8.33 -0.98 8.66 -2 9 C-2.20140476 5.37471432 -1.85776765 3.13498292 0 0 Z " fill="#A28A38" transform="translate(283,323)"/>
<path d="M0 0 C0.99 0.99 1.98 1.98 3 3 C2.6875 6.6875 2.6875 6.6875 2 10 C1.67 10 1.34 10 1 10 C0.67 6.7 0.34 3.4 0 0 Z " fill="#C4A04A" transform="translate(362,120)"/>
</svg>
